PathFileType	4	(X/Y/Z)	s07c0402.trc
DataRate	CameraRate	NumFrames	NumMarkers	Units	OrigDataRate	OrigDataStartFrame	OrigNumFrames
200	200	4	48	mm	200	1250	2000
Frame#	Time	racr			lacr			c7			jug			rlel			rdr			llel			ldr			s2			lic			ric			lasi			rasi			rpsi			lpsi			rgt			lgt			rth1			rth2			rth3			rth4			rlfc			rmfc			rsh1			rsh2			rsh3			rsh4			rlmal			rcal			rtoe			rmt5			lth1			lth2			lth4			lth3			llfc			lmfc			lsh1			lsh2			lsh3			lsh4			llmal			lcal			ltoe			lmt5			SBIKE			LBIKE			RBIKE			
		X1	Y1	Z1	X2	Y2	Z2	X3	Y3	Z3	X4	Y4	Z4	X5	Y5	Z5	X6	Y6	Z6	X7	Y7	Z7	X8	Y8	Z8	X9	Y9	Z9	X10	Y10	Z10	X11	Y11	Z11	X12	Y12	Z12	X13	Y13	Z13	X14	Y14	Z14	X15	Y15	Z15	X16	Y16	Z16	X17	Y17	Z17	X18	Y18	Z18	X19	Y19	Z19	X20	Y20	Z20	X21	Y21	Z21	X22	Y22	Z22	X23	Y23	Z23	X24	Y24	Z24	X25	Y25	Z25	X26	Y26	Z26	X27	Y27	Z27	X28	Y28	Z28	X29	Y29	Z29	X30	Y30	Z30	X31	Y31	Z31	X32	Y32	Z32	X33	Y33	Z33	X34	Y34	Z34	X35	Y35	Z35	X36	Y36	Z36	X37	Y37	Z37	X38	Y38	Z38	X39	Y39	Z39	X40	Y40	Z40	X41	Y41	Z41	X42	Y42	Z42	X43	Y43	Z43	X44	Y44	Z44	X45	Y45	Z45	X46	Y46	Z46	X47	Y47	Z47	X48	Y48	Z48	
1250	6.2500	832.600822	1376.011565	-113.753927	813.143744	1426.042601	-446.391939	827.260823	1458.917886	-273.831148	769.451414	1318.467704	-293.293753	556.544871	1170.490599	18.854757	696.424949	937.278807	-64.268968	558.657449	1183.279642	-533.189960	692.756928	936.030851	-454.823795	235.818928	1286.813736	-213.139640	376.365700	1341.616260	-363.184023	436.437887	1272.461486	-93.391665	396.896274	1256.242803	-360.204302	436.924695	1216.702916	-113.783813	280.760359	1312.988459	-162.794856	270.985789	1337.288371	-267.058832	344.603750	1149.681235	-55.265446	306.521979	1194.313958	-411.642386	378.152450	995.977608	-66.764925	400.805457	911.960159	-79.559503	384.800764	828.322636	-76.655660	432.815438	915.033473	-96.866468	375.344194	689.933115	-104.267559	350.822264	680.320471	-203.551673	273.696354	592.124034	-70.175154	236.290600	514.375588	-81.761719	162.669277	463.632383	-75.404756	245.374058	505.260227	-122.194390	66.373263	363.040467	-73.486062	-3.165216	387.658965	-104.350824	148.970365	140.141080	-126.852351	78.266836	182.259577	-55.233183	383.167372	1095.324606	-424.392325	460.749092	1053.992786	-433.433241	486.160247	1079.325803	-425.953767	507.863475	978.180957	-434.407783	620.599451	839.354308	-412.701538	615.118669	821.961588	-310.335120	509.147528	740.388495	-424.399869	459.037989	673.081361	-404.035064	377.215969	635.492328	-407.699636	479.913255	657.983051	-355.129905	265.223883	557.803190	-402.716901	181.729697	551.100653	-369.601176	431.335846	405.680692	-366.209864	348.273332	417.947560	-433.506234	-262.971174	970.065583	-239.026999	-83.279947	79.317571	-437.562972	-83.251937	79.690949	-39.900020	
1251	6.2550	832.372449	1375.394245	-115.204496	814.410523	1421.690987	-447.359391	827.939700	1456.953585	-275.469973	768.880911	1316.565830	-293.466167	556.991601	1170.626287	19.166066	696.204428	936.990364	-64.243685	557.153856	1181.994437	-532.987796	692.421258	935.804891	-454.599196	235.797459	1289.177744	-211.581105	373.326702	1343.367024	-370.354995	436.915027	1275.378222	-92.881358	395.632937	1257.743060	-359.837606	437.636145	1219.593584	-113.743001	281.885495	1314.433385	-162.650720	270.713086	1339.456089	-265.792740	346.998490	1151.395448	-54.293119	304.404857	1195.688515	-409.981346	384.838754	998.223958	-67.190029	409.644078	914.973289	-81.142150	396.296421	830.762980	-77.912620	440.852621	918.997690	-99.663457	387.398651	692.588604	-105.524976	362.759808	682.904370	-204.759971	284.467086	596.309992	-71.272912	243.234627	519.392811	-83.813066	170.280684	470.547663	-75.816123	253.917894	509.979876	-123.015173	72.157730	370.861088	-73.321289	2.878837	399.705825	-105.061812	140.122240	143.291974	-126.692502	72.865078	190.210653	-55.443645	379.830652	1095.585926	-423.299301	456.646716	1052.961637	-432.594912	482.529548	1077.884337	-425.216693	502.483233	976.413814	-433.682207	613.395496	835.123357	-412.280728	608.048081	818.091457	-310.232885	503.485582	734.934330	-425.124833	454.691186	665.620469	-404.128022	373.648617	626.298614	-407.125964	475.128833	652.579048	-355.922730	263.937672	545.929600	-402.095072	180.947005	535.680660	-368.262423	436.688448	401.349085	-367.470816	352.598293	410.208219	-433.876911	-262.953481	970.076701	-239.214847	-83.281586	79.343836	-437.589183	-83.218884	79.786407	-39.929740	
1252	6.2600	832.144740	1374.942357	-115.982345	815.671275	1417.351018	-448.053975	828.653579	1455.069723	-276.853702	767.652362	1314.932386	-293.041893	557.308201	1170.627304	19.511168	696.058523	936.857352	-64.147886	555.707141	1180.677236	-532.725980	692.110746	935.537773	-454.175756	235.883109	1291.314014	-209.957215	372.459569	1343.506438	-367.503869	437.453306	1278.210383	-92.661365	394.339163	1258.724611	-359.400779	438.373087	1222.020753	-113.787236	282.107063	1316.591634	-161.586470	270.170993	1341.372056	-264.104484	349.364697	1153.045815	-53.272290	302.135980	1196.610065	-408.284268	391.683336	1000.540784	-67.635366	418.519221	918.157577	-82.820828	407.725468	833.737628	-79.571405	448.979609	923.029607	-102.794217	399.324618	695.474492	-106.929446	374.663345	685.854393	-206.159622	294.970012	600.291065	-72.613399	252.067171	524.348670	-84.995784	178.112649	477.028795	-76.748705	263.297557	514.705180	-123.009743	78.083783	378.475212	-73.544788	10.244995	411.455323	-105.693532	130.347839	146.270611	-128.183216	68.057212	198.333082	-55.566251	376.173850	1095.342626	-422.143554	452.361739	1051.602920	-431.761958	479.432772	1075.748152	-423.994144	496.815547	974.183153	-433.031507	606.042516	830.327517	-411.385707	600.578387	813.850159	-310.619156	497.084542	727.783457	-425.209547	450.119068	657.800141	-404.117364	370.255261	616.006050	-405.654427	470.039172	646.833558	-356.721143	263.033288	532.996490	-401.200308	180.591155	520.159727	-367.001489	441.391749	395.849696	-368.414750	356.443340	400.714474	-433.149232	-262.818092	970.203486	-239.493551	-83.274648	79.353728	-437.597125	-83.209775	79.853546	-39.916812	
1253	6.2650	831.869818	1374.595118	-116.367076	816.880869	1413.044405	-448.501866	829.300777	1453.238391	-277.953180	767.368194	1313.246393	-292.867221	557.594730	1170.565151	19.911123	695.844492	936.315133	-63.786773	554.234438	1179.368372	-532.399729	691.788747	935.315190	-453.693380	236.150134	1293.369002	-208.185452	371.524351	1343.624698	-366.885258	438.000421	1280.697315	-92.467077	392.893445	1259.217624	-359.196591	439.236505	1224.477044	-113.921985	282.323707	1318.585457	-160.570684	269.717418	1342.997921	-262.824539	351.807742	1154.808272	-52.285092	299.730790	1197.044452	-406.621708	398.603369	1002.901485	-68.008483	427.408749	921.550836	-84.421549	419.305114	836.718476	-81.427560	456.964378	927.317856	-105.140950	410.922317	698.594133	-108.529921	386.330267	689.185731	-207.970572	305.025702	603.865061	-73.963280	260.430259	528.896918	-86.375216	185.656547	482.932689	-77.827316	270.054014	519.394629	-125.921192	84.088545	385.739126	-74.260566	17.360420	422.437863	-107.478357	122.074350	150.910756	-128.191470	63.730100	206.918190	-56.035696	372.363420	1094.629539	-420.932950	447.756050	1049.711973	-431.063297	475.213208	1073.478276	-423.614460	490.900639	971.493858	-432.650345	598.394818	825.821321	-411.547148	592.963225	809.332632	-311.515415	490.779224	720.370424	-425.533111	445.860326	646.920603	-398.790639	366.980096	605.399260	-404.958031	464.712750	640.773571	-357.511794	262.470220	519.857339	-400.188410	180.681957	504.816645	-365.859941	445.548286	389.323898	-369.280556	360.110019	391.674386	-433.373342	-262.604405	970.321909	-239.656528	-83.247981	79.448254	-437.666539	-83.163932	79.941358	-39.943681	
